HIERARCHY
ROOT hip
{
	OFFSET 0.000000 0.000000 0.000000
	CHANNELS 6 Xposition Yposition Zposition Zrotation Yrotation Xrotation 
	JOINT lhipjoint
	{
		OFFSET 0.000000 0.000000 0.000000
		CHANNELS 3 Zrotation Yrotation Xrotation
		JOINT lfemur
		{
			OFFSET 1.363060 -1.794630 0.839290
			CHANNELS 3 Zrotation Yrotation Xrotation
			JOINT ltibia
			{
				OFFSET 2.448110 -6.726130 0.000000
				CHANNELS 3 Zrotation Yrotation Xrotation
				JOINT lfoot
				{
					OFFSET 2.562200 -7.039590 0.000000
					CHANNELS 3 Zrotation Yrotation Xrotation
					JOINT ltoes
					{
						OFFSET 0.157640 -0.433110 2.322550
						CHANNELS 3 Zrotation Yrotation Xrotation
						End Site
						{
							OFFSET 0.000000 0.000000 0.000000
						}
					}
				}
			}
		}
	}
	JOINT rhipjoint
	{
		OFFSET 0.000000 0.000000 0.000000
		CHANNELS 3 Zrotation Yrotation Xrotation
		JOINT rfemur
		{
			OFFSET -1.305520 -1.794630 0.839290
			CHANNELS 3 Zrotation Yrotation Xrotation
			JOINT rtibia
			{
				OFFSET -2.542530 -6.985550 0.000000
				CHANNELS 3 Zrotation Yrotation Xrotation
				JOINT rfoot
				{
					OFFSET -2.568260 -7.056230 0.000000
					CHANNELS 3 Zrotation Yrotation Xrotation
					JOINT rtoes
					{
						OFFSET -0.164730 -0.452590 2.363150
						CHANNELS 3 Zrotation Yrotation Xrotation
						End Site
						{
							OFFSET 0.000000 0.000000 0.000000
						}
					}
				}
			}
		}
	}
	JOINT lowerback
	{
		OFFSET 0.000000 0.000000 0.000000
		CHANNELS 3 Zrotation Yrotation Xrotation
		JOINT upperback
		{
			OFFSET 0.028270 2.035590 -0.193380
			CHANNELS 3 Zrotation Yrotation Xrotation
			JOINT thorax
			{
				OFFSET 0.056720 2.048850 -0.042750
				CHANNELS 3 Zrotation Yrotation Xrotation
				JOINT lowerneck
				{
					OFFSET 0.000000 0.000000 0.000000
					CHANNELS 3 Zrotation Yrotation Xrotation
					JOINT upperneck
					{
						OFFSET -0.054170 1.746240 0.172020
						CHANNELS 3 Zrotation Yrotation Xrotation
						JOINT head
						{
							OFFSET 0.104070 1.761360 -0.123970
							CHANNELS 3 Zrotation Yrotation Xrotation
							End Site
							{
								OFFSET 0.000000 0.000000 0.000000
							}
						}
					}
				}
				JOINT lclavicle
				{
					OFFSET 0.000000 0.000000 0.000000
					CHANNELS 3 Zrotation Yrotation Xrotation
					JOINT lhumerus
					{
						OFFSET 3.362410 1.200890 -0.311210
						CHANNELS 3 Zrotation Yrotation Xrotation
						JOINT lradius
						{
							OFFSET 4.983000 -0.000000 -0.000000
							CHANNELS 3 Zrotation Yrotation Xrotation
							JOINT lwrist
							{
								OFFSET 3.483560 -0.000000 -0.000000
								CHANNELS 3 Zrotation Yrotation Xrotation
								JOINT lhand
								{
									OFFSET 0.000000 0.000000 0.000000
									CHANNELS 3 Zrotation Yrotation Xrotation
									JOINT lfingers
									{
										OFFSET 0.715260 -0.000000 -0.000000
										CHANNELS 3 Zrotation Yrotation Xrotation
										End Site
										{
											OFFSET 0.000000 0.000000 0.000000
										}
									}
								}
								JOINT lthumb
								{
									OFFSET 0.000000 0.000000 0.000000
									CHANNELS 3 Zrotation Yrotation Xrotation
									End Site
									{
										OFFSET 0.000000 0.000000 0.000000
									}
								}
							}
						}
					}
				}
				JOINT rclavicle
				{
					OFFSET 0.000000 0.000000 0.000000
					CHANNELS 3 Zrotation Yrotation Xrotation
					JOINT rhumerus
					{
						OFFSET -3.136600 1.374050 -0.404650
						CHANNELS 3 Zrotation Yrotation Xrotation
						JOINT rradius
						{
							OFFSET -5.241900 -0.000000 -0.000000
							CHANNELS 3 Zrotation Yrotation Xrotation
							JOINT rwrist
							{
								OFFSET -3.444170 -0.000000 -0.000000
								CHANNELS 3 Zrotation Yrotation Xrotation
								JOINT rhand
								{
									OFFSET 0.000000 0.000000 0.000000
									CHANNELS 3 Zrotation Yrotation Xrotation
									JOINT rfingers
									{
										OFFSET -0.622530 -0.000000 -0.000000
										CHANNELS 3 Zrotation Yrotation Xrotation
										End Site
										{
											OFFSET 0.000000 0.000000 0.000000
										}
									}
								}
								JOINT rthumb
								{
									OFFSET 0.000000 0.000000 0.000000
									CHANNELS 3 Zrotation Yrotation Xrotation
									End Site
									{
										OFFSET 0.000000 0.000000 0.000000
									}
								}
							}
						}
					}
				}
			}
		}
	}
}
MOTION
Frames: 8
Frame Time: 0.008333
-14.983112 19.540152 -0.517101 6.157380 -75.473834 -5.744572 7.025552 6.913416 1.864164 -22.178817 -6.408177 5.124771 5.887167 11.665961 46.216439 1.810320 4.783286 33.546819 0.127700 -2.303200 -6.344400 -9.648440 -6.667007 1.437283 22.162768 3.496624 -28.836249 -2.221915 -10.816204 33.580841 -2.383512 2.858271 19.492142 -0.062300 1.610100 -4.429300 7.223435 0.723068 -9.347193 1.016385 -0.355329 0.143731 -2.582525 0.578761 15.369231 1.287026 -3.394904 -7.003433 2.273358 -4.935662 14.987067 -1.588300 -1.979600 4.103700 6.138648 1.946769 3.944910 -87.104952 0.309834 30.389704 6.147896 -28.224391 -1.768765 -0.449724 0.211054 33.624448 9.634549 -3.570438 -0.622700 -7.125000 0.000000 0.000000 -12.473400 26.391000 5.757800 -2.767222 -0.461548 4.142597 80.054515 -0.634650 25.323041 -18.342882 39.912516 -5.667570 0.218952 -2.515229 -3.170756 -12.503526 3.719688 -1.405700 7.125000 0.000000 0.000000 10.408000 -23.544700 5.471400 
-15.109232 19.581713 -0.525106 6.232911 -75.351893 -5.810354 6.964216 6.898776 1.870919 -22.252675 -6.516732 3.859330 6.527410 12.211147 48.038061 1.129425 7.083852 32.548641 0.092000 -1.955800 -5.383500 -9.630486 -6.685960 1.410887 22.300308 3.228780 -28.179177 -2.169783 -10.619183 33.161582 -2.348284 2.918486 19.148517 -0.077100 1.790700 -4.927700 7.295646 0.859012 -9.248097 0.998424 -0.164391 0.134047 -2.583004 0.674421 15.296263 1.447918 -3.515130 -7.015394 2.201446 -5.117356 15.095966 -1.703500 -2.052800 4.197000 6.243199 1.968824 3.921757 -87.478582 0.498455 29.413095 5.226835 -27.210796 -1.581149 -0.538076 0.222478 35.604067 7.872228 -3.425539 -0.487200 -7.125000 0.000000 0.000000 -13.754900 26.595400 6.313200 -2.716808 -0.455745 4.137445 79.739900 0.126024 25.683508 -19.329000 40.600634 -6.015070 0.229554 -2.548258 -3.329841 -12.702746 3.775375 -1.449800 7.125000 0.000000 0.000000 10.254500 -23.446200 5.411800 
-15.232376 19.623992 -0.532392 6.303874 -75.230517 -5.880715 6.908766 6.879174 1.877066 -22.338789 -6.591538 2.597265 7.127322 12.706068 49.750372 0.397095 9.207819 31.216271 0.101300 -2.052200 -5.650000 -9.614139 -6.704144 1.381575 22.433508 2.982880 -27.486124 -2.114198 -10.409950 32.709956 -2.307751 2.942895 18.841940 -0.092800 1.965100 -5.409300 7.377968 0.991729 -9.127502 0.978112 0.022347 0.126984 -2.627919 0.774941 15.240109 1.624319 -3.627380 -7.069124 2.151460 -5.293426 15.187298 -1.805400 -2.122700 4.298500 6.309894 1.991597 3.897909 -87.723702 0.803015 28.645069 4.586422 -26.487914 -1.462460 -0.626369 0.257564 37.471872 6.028736 -3.181685 -0.351200 -7.125000 0.000000 0.000000 -15.098500 26.871200 6.868700 -2.656908 -0.450234 4.131237 79.420491 0.898378 26.046212 -20.385760 41.339452 -6.405895 0.231075 -2.585817 -3.573583 -12.997965 3.947628 -1.532700 7.125000 0.000000 0.000000 10.033600 -23.221300 5.344300 
-15.351210 19.665656 -0.539575 6.384717 -75.119618 -5.958433 6.859096 6.855523 1.880701 -22.414519 -6.612688 1.342515 7.668249 13.143831 51.304504 -0.325652 11.097672 29.781525 0.122700 -2.257700 -6.218400 -9.598726 -6.722326 1.348860 22.565482 2.710501 -26.810462 -2.057882 -10.199378 32.249225 -2.265862 2.945275 18.573258 -0.097800 2.016800 -5.552100 7.444436 1.122167 -9.004104 0.961754 0.204969 0.123995 -2.621416 0.866360 15.206442 1.726860 -3.725561 -7.132919 2.117761 -5.445881 15.259218 -1.875900 -2.185400 4.389900 6.352510 2.013303 3.878638 -87.911671 1.182351 28.219377 4.135689 -25.992379 -1.382945 -0.697963 0.301106 38.746773 4.430502 -2.954288 -0.248200 -7.125000 0.000000 0.000000 -16.261100 27.103600 7.345400 -2.585340 -0.455078 4.125716 79.064356 1.721077 26.311577 -21.491368 42.085624 -6.832632 0.227547 -2.615874 -3.780137 -13.270395 4.186250 -1.628400 7.125000 0.000000 0.000000 9.829600 -22.937400 5.297500 
-15.465220 19.704138 -0.547374 6.584278 -74.937451 -6.173224 6.819431 6.827762 1.885961 -22.536429 -6.703137 0.173558 8.126349 13.516700 52.652209 -0.984428 12.661690 28.360079 0.136900 -2.384300 -6.569000 -9.580955 -6.738432 1.313813 22.632358 2.420240 -26.134988 -2.007164 -9.992912 31.799296 -2.212751 2.880782 18.338410 -0.100400 2.043200 -5.624900 7.456666 1.231300 -8.829757 0.945485 0.370456 0.119583 -2.589844 0.943630 15.164511 1.783749 -3.826710 -7.251310 2.102026 -5.609184 15.349989 -1.928200 -2.253900 4.534900 6.376157 2.024584 3.851145 -88.046775 1.601593 27.983812 3.799695 -25.627667 -1.324691 -0.758665 0.343871 39.800466 3.035907 -2.793784 -0.172300 -7.125000 0.000000 0.000000 -17.268000 27.260600 7.773200 -2.507948 -0.456922 4.113840 78.652210 2.530631 26.565150 -22.719033 42.900263 -7.330735 0.215535 -2.647848 -4.067840 -13.647959 4.530847 -1.765400 7.125000 0.000000 0.000000 9.554200 -22.538600 5.233300 
-15.574510 19.738310 -0.554455 6.642624 -74.781554 -6.230816 6.788907 6.796539 1.892199 -22.628932 -6.841388 -0.944163 8.485319 13.823666 53.749732 -1.497455 13.814235 27.197483 0.128700 -2.312700 -6.370500 -9.564265 -6.753430 1.279542 22.737324 2.114789 -25.523443 -1.958172 -9.797196 31.371875 -2.168931 2.837745 18.154770 -0.093400 1.970600 -5.424300 7.526090 1.344838 -8.667866 0.929232 0.534803 0.115128 -2.590417 1.026941 15.113526 1.827539 -3.938645 -7.303066 2.017321 -5.765954 15.633597 -1.827500 -2.327100 4.285400 6.381736 2.039186 3.823510 -88.123964 2.110393 27.900169 3.592913 -25.401191 -1.289141 -0.805268 0.382550 40.701690 1.917327 -2.631941 -0.116200 -7.125000 0.000000 0.000000 -18.078900 27.411900 8.105800 -2.432177 -0.450397 4.104083 78.240630 3.343443 26.774803 -23.983903 43.734118 -7.873648 0.193826 -2.685783 -4.303630 -14.151923 4.951295 -1.944900 7.125000 0.000000 0.000000 9.191600 -22.048700 5.133700 
-15.681132 19.768686 -0.561433 6.773161 -74.609459 -6.375728 6.767649 6.763804 1.897651 -22.739999 -7.007136 -1.953127 8.740848 14.063802 54.588961 -1.872807 14.563346 26.212139 0.097900 -2.017600 -5.554300 -9.546744 -6.767648 1.243840 22.815135 1.798190 -24.923557 -1.913122 -9.610259 30.972201 -2.132476 2.843791 17.909149 -0.103100 2.070800 -5.701300 7.549787 1.450455 -8.488991 0.915759 0.693734 0.112812 -2.558603 1.100148 15.046593 1.869215 -4.038071 -7.324688 1.988331 -5.913522 15.658754 -1.866100 -2.393800 4.327200 6.378913 2.040099 3.808021 -88.131729 2.637127 28.158601 3.483846 -25.292185 -1.267832 -0.834423 0.419357 41.123500 1.049935 -2.367548 -0.072800 -7.125000 0.000000 0.000000 -18.728100 27.646000 8.317900 -2.343144 -0.447746 4.105784 77.791806 4.158895 26.940930 -25.307024 44.578489 -8.469123 0.174815 -2.723814 -4.571540 -14.713318 5.325401 -2.129700 7.125000 0.000000 0.000000 8.792900 -21.598800 4.996700 
-15.786010 19.798035 -0.567898 6.764785 -74.464839 -6.364079 6.752218 6.729437 1.901290 -22.808567 -7.149364 -2.928543 8.905039 14.252619 55.203993 -2.145227 14.981564 25.285306 0.084800 -1.878200 -5.169200 -9.532328 -6.781401 1.208137 22.927343 1.516366 -24.350477 -1.870963 -9.433734 30.593752 -2.090293 2.819993 17.663366 -0.107100 2.110100 -5.810100 7.626397 1.569589 -8.341439 0.903567 0.860199 0.114057 -2.528967 1.183009 14.998342 1.877722 -4.152540 -7.315505 1.955185 -6.071105 15.640947 -1.884500 -2.471900 4.324700 6.360858 2.046707 3.798582 -88.109103 3.142518 28.507600 3.414060 -25.223677 -1.250615 -0.858058 0.446636 41.296663 0.346178 -2.194187 -0.044100 -7.125000 0.000000 0.000000 -19.249100 27.794100 8.503600 -2.247683 -0.453220 4.114285 77.298698 5.004340 27.096071 -26.714304 45.457358 -9.127186 0.164083 -2.761070 -4.921033 -15.254860 5.616224 -2.298100 7.125000 0.000000 0.000000 8.411900 -21.231400 4.846200 
